<svg xmlns="http://www.w3.org/2000/svg" viewBox="0 0 289 289" style="background: transparent;"><title>circles</title><path d="M191.79,144A47.79,47.79,0,1,1,144,96.21,47.78,47.78,0,0,1,191.79,144Z" transform="translate(0.5 0.5)" style="fill:none;stroke:#fff;stroke-miterlimit:10"/><path d="M207.88,144A63.88,63.88,0,1,1,144,80.12,63.88,63.88,0,0,1,207.88,144Z" transform="translate(0.5 0.5)" style="fill:none;stroke:#fff;stroke-miterlimit:10;opacity:0.8"/><circle cx="144" cy="144" r="79.66" transform="translate(-20.66 263.64) rotate(-80.81)" style="fill:none;stroke:#fff;stroke-miterlimit:10;opacity:0.6000000000000001"/><circle cx="144" cy="144" r="95.74" transform="translate(-12.94 273.67) rotate(-84.37)" style="fill:none;stroke:#fff;stroke-miterlimit:10;opacity:0.4"/><circle cx="144" cy="144" r="111.83" transform="translate(-59.15 144.5) rotate(-45)" style="fill:none;stroke:#fff;stroke-miterlimit:10;opacity:0.2"/><circle cx="144" cy="144" r="127.6" transform="translate(-59.15 144.5) rotate(-45)" style="fill:none;stroke:#fff;stroke-miterlimit:10;opacity:0.1"/><circle cx="144.5" cy="144.5" r="144" style="fill:none;stroke:#fff;stroke-miterlimit:10;opacity:0.05"/></svg>