<svg xmlns="http://www.w3.org/2000/svg" viewBox="0 0 48.68 48.68"><title>decisions-muted</title><path d="M48.67,24.33A24.34,24.34,0,1,1,24.32,0h0A24.34,24.34,0,0,1,48.67,24.33Z" transform="translate(0.01)" style="fill:#f0f0f0"/><path d="M35,13.81l-2.44,2.45,4.19,4.2H29L24.3,25.11l-4.66-4.65H12l4.2-4.2-2.45-2.45L5.37,22.2l.42.42,8,7.94,2.44-2.45L12,23.92h6.3l4.34,4.34V48.6s.78.07,1.73.07,1.73-.07,1.73-.07V28.29l4.37-4.37h6.27l-4.2,4.19L35,30.56l7.94-7.94.42-.42Z" transform="translate(0.01)" style="fill:#fff"/></svg>