<svg xmlns="http://www.w3.org/2000/svg" viewBox="0 0 48.67 48.67"><title>info</title><path d="M48.85,24.33A24.34,24.34,0,1,1,24.52,0,24.33,24.33,0,0,1,48.85,24.33Z" transform="translate(-0.18)" style="fill:#0088b9"/><polygon points="26.06 33.05 26.06 17.44 25.06 17.44 22.6 17.44 20.92 17.44 20.92 20.89 22.6 20.89 22.6 33.05 20.92 33.05 20.92 36.51 27.74 36.51 27.74 33.05 26.06 33.05" style="fill:#fff"/><path d="M24.52,14.47a2.6,2.6,0,1,0-2.6-2.6A2.59,2.59,0,0,0,24.52,14.47Z" transform="translate(-0.18)" style="fill:#fff"/></svg>