<svg xmlns="http://www.w3.org/2000/svg" viewBox="0 0 288.5 230.15"><title>intro-logo</title><circle cx="114.58" cy="114.59" r="28.2" transform="matrix(1, -0.04, 0.04, 1, -4.15, 5.35)" style="fill:#0088b9"/><path d="M114.34,121.19a6.28,6.28,0,0,0-1.74-4.94l-.18-.2c-2.37-2.8-3.34-5.73-2.89-8.72.73-4.87,5.1-8,5.84-8.5l.1-.07-2.18-3.4c-.68.44-6.72,4.48-7.76,11.37-.43,2.88-.12,7.3,3.81,11.93l.23.27a2.83,2.83,0,0,1,.76,1.67,5.25,5.25,0,0,1-2.12,2.64l2.2,3.42C110.82,126.38,113.9,124.19,114.34,121.19Z" transform="translate(0.5 0.5)" style="fill:#fff"/><path d="M119,110.55l-.23-.27a2.9,2.9,0,0,1-.77-1.67,5.5,5.5,0,0,1,2.1-2.65l-2.17-3.41s-3.46,2.29-3.93,5.47A6.3,6.3,0,0,0,115.7,113l.18.2c2.37,2.8,3.35,5.73,2.9,8.72-.79,5.21-5.73,8.43-5.94,8.56h0l2.17,3.41c.69-.44,6.73-4.48,7.77-11.37C123.21,119.6,122.9,115.18,119,110.55Z" transform="translate(0.5 0.5)" style="fill:#fff"/><circle cx="115.08" cy="115.08" r="38.03" style="fill:none;stroke:#fff;stroke-miterlimit:10"/><circle cx="115.08" cy="115.08" r="50.83" style="fill:none;stroke:#fff;stroke-miterlimit:10;opacity:0.8"/><circle cx="115.08" cy="115.08" r="63.38" style="fill:none;stroke:#fff;stroke-miterlimit:10;opacity:0.6000000000000001"/><circle cx="115.08" cy="115.08" r="76.18" style="fill:none;stroke:#fff;stroke-miterlimit:10;opacity:0.4"/><circle cx="115.08" cy="115.08" r="88.98" style="fill:none;stroke:#fff;stroke-miterlimit:10;opacity:0.2"/><circle cx="115.08" cy="115.08" r="101.53" style="fill:none;stroke:#fff;stroke-miterlimit:10;opacity:0.1"/><circle cx="114.58" cy="114.58" r="114.58" transform="translate(-0.07 1.07) rotate(-0.29)" style="fill:none;stroke:#fff;stroke-miterlimit:10;opacity:0.05"/><path d="M176.05,95.13a7.56,7.56,0,0,0-5.53-1.86c-2.77,0-5.42,1-5.35,3.27s3.16,2.83,5.39,3.23c3.16.54,7.5,1.08,7.32,5.21-.1,3.91-4.16,5-7.29,5s-6.21-1.18-7.76-3.55l1.3-1.15a7.86,7.86,0,0,0,6.5,3c2.15,0,5.42-.57,5.53-3.37.07-2.55-2.87-3.05-5.78-3.52-3.45-.58-6.86-1.22-6.9-4.78s3.45-5,7-5A9.27,9.27,0,0,1,177.13,94Z" transform="translate(0.5 0.5)" style="fill:#0088b9"/><path d="M184.16,100.81a9,9,0,1,1,18,0,9,9,0,1,1-18,0Zm16.31,0a7.3,7.3,0,1,0-14.59,0,7.3,7.3,0,1,0,14.59,0Z" transform="translate(0.5 0.5)" style="fill:#0088b9"/><path d="M223.72,109.64v-3.19a7,7,0,0,1-6.32,3.48c-4.74,0-8-2.91-8-7.83V91.87h1.76v10.2c0,4,2.48,6.17,6.32,6.14a6.17,6.17,0,0,0,6.22-6.47V91.87h1.76v17.77Z" transform="translate(0.5 0.5)" style="fill:#0088b9"/><path d="M235.28,91.9l.07,3.16a6.25,6.25,0,0,1,5.89-3.34,7.07,7.07,0,0,1,3.81,1l-.79,1.44a5.78,5.78,0,0,0-3-.83,5.9,5.9,0,0,0-5.86,5.93v10.34h-1.76V91.9Z" transform="translate(0.5 0.5)" style="fill:#0088b9"/><path d="M264.89,107.17a9.1,9.1,0,0,1-6.47,2.65,8.74,8.74,0,0,1-9.12-9c0-5.6,4-9,9.12-9a9.24,9.24,0,0,1,6.47,2.66l-1.15,1.11a7.57,7.57,0,0,0-5.32-2.12,7.4,7.4,0,0,0,0,14.8A7.51,7.51,0,0,0,263.7,106Z" transform="translate(0.5 0.5)" style="fill:#0088b9"/><path d="M270.14,100.77a8.92,8.92,0,0,1,9-9.16c5,0,9.44,3.06,8.76,10h-16a7,7,0,0,0,7.22,6.57c2.33,0,5.06-.93,6.39-2.69l1.26,1a9.76,9.76,0,0,1-7.65,3.42A8.71,8.71,0,0,1,270.14,100.77Zm16.2-.71c0-4.39-2.91-6.83-7.18-6.83a7.09,7.09,0,0,0-7.22,6.83Z" transform="translate(0.5 0.5)" style="fill:#0088b9"/><path d="M175.43,123.45a7.26,7.26,0,0,0-5.29-1.78c-2.64,0-5.18,1-5.12,3.12s3,2.72,5.16,3.09c3,.52,7.17,1,7,5-.1,3.75-4,4.74-7,4.74s-5.94-1.13-7.42-3.4l1.24-1.1a7.52,7.52,0,0,0,6.21,2.89c2.07,0,5.19-.55,5.29-3.23.07-2.44-2.74-2.92-5.53-3.36-3.29-.55-6.55-1.17-6.59-4.57s3.3-4.78,6.73-4.74a8.89,8.89,0,0,1,6.32,2.27Z" transform="translate(0.5 0.5)" style="fill:#0088b9"/><path d="M187.33,115.25v5.11h5.77v1.41h-5.77v10.34c0,2.3.48,3.91,3.13,3.91a6.33,6.33,0,0,0,2.61-.68l.58,1.37a7.33,7.33,0,0,1-3.19.86c-3.61,0-4.77-2.13-4.77-5.46V121.77h-3.61v-1.41h3.61v-4.94Z" transform="translate(0.5 0.5)" style="fill:#0088b9"/><path d="M201,120.36l.06,3a6,6,0,0,1,5.64-3.2,6.65,6.65,0,0,1,3.64,1l-.76,1.37a5.44,5.44,0,0,0-2.88-.79,5.64,5.64,0,0,0-5.6,5.67v9.89h-1.68v-17Z" transform="translate(0.5 0.5)" style="fill:#0088b9"/><path d="M213.78,128.85a8.53,8.53,0,0,1,8.62-8.76c4.78,0,9,2.92,8.38,9.55H215.5a6.67,6.67,0,0,0,6.9,6.28c2.23,0,4.84-.89,6.11-2.57l1.21,1a9.35,9.35,0,0,1-7.32,3.26A8.32,8.32,0,0,1,213.78,128.85Zm15.49-.69c0-4.19-2.78-6.53-6.87-6.53a6.78,6.78,0,0,0-6.9,6.53Z" transform="translate(0.5 0.5)" style="fill:#0088b9"/><path d="M253.86,120.36v17h-1.69v-3.61a7.91,7.91,0,0,1-6.93,3.88,8.72,8.72,0,0,1,0-17.44,7.69,7.69,0,0,1,6.93,3.91v-3.71Zm-15.56,8.49a6.82,6.82,0,0,0,6.94,7.11c9.44,0,9.44-14.19,0-14.19A6.79,6.79,0,0,0,238.3,128.85Z" transform="translate(0.5 0.5)" style="fill:#0088b9"/><path d="M286.32,137.33V127.16a5.25,5.25,0,0,0-5.43-5.56,5.36,5.36,0,0,0-5.46,5.67v10.06h-1.68V127.27a5.45,5.45,0,1,0-10.89,0v10.06h-1.68v-17h1.58l0,2.82a6,6,0,0,1,5.53-3.16,6.25,6.25,0,0,1,6.29,4.19,6.55,6.55,0,0,1,6.28-4.19,6.82,6.82,0,0,1,7.11,7.14v10.17Z" transform="translate(0.5 0.5)" style="fill:#0088b9"/></svg>