<svg xmlns="http://www.w3.org/2000/svg" xmlns:xlink="http://www.w3.org/1999/xlink" version="1.1" x="0px" y="0px" viewBox="0 0 64 64" enable-background="new 0 0 64 64" xml:space="preserve"><g><g><path d="M34,17c2.757,0,5-2.243,5-5s-2.243-5-5-5s-5,2.243-5,5S31.243,17,34,17z M34,9c1.654,0,3,1.346,3,3s-1.346,3-3,3    s-3-1.346-3-3S32.346,9,34,9z"></path><path d="M46,27h-2h-1v-3c0-2.757-2.243-5-5-5h-8c-2.757,0-5,2.243-5,5v3h-4v-6.586l1.707-1.707c0.391-0.391,0.391-1.023,0-1.414    s-1.023-0.391-1.414,0l-2,2C19.105,19.48,19,19.735,19,20v7h-1c-0.552,0-1,0.448-1,1s0.448,1,1,1h1v3    c0,0.107,0.017,0.214,0.051,0.316L21,38.162V56c0,0.553,0.448,1,1,1h20c0.553,0,1-0.447,1-1V38.162l1.948-5.846    C44.982,32.214,45,32.107,45,32v-3h1c0.553,0,1-0.448,1-1S46.553,27,46,27z M27,24c0-1.654,1.346-3,3-3h8c1.654,0,3,1.346,3,3v3    H27V24z M43,31.838l-1.948,5.846C41.018,37.786,41,37.893,41,38v17H23V38c0-0.107-0.017-0.214-0.051-0.316L21,31.838V29h22V31.838    z"></path></g></g></svg>