<?xml version="1.0" encoding="utf-8"?>
<!-- Generator: Adobe Illustrator 22.1.0, SVG Export Plug-In . SVG Version: 6.00 Build 0)  -->
<svg version="1.1" id="Layer_1" xmlns="http://www.w3.org/2000/svg" xmlns:xlink="http://www.w3.org/1999/xlink" x="0px" y="0px"
	 viewBox="0 0 48.7 48.7" style="enable-background:new 0 0 48.7 48.7;" xml:space="preserve">
<style type="text/css">
	.st0{fill:#0088B9;}
	.st1{fill:#FFFFFF;}
</style>
<title>decisions</title>
<path class="st0" d="M48.7,24.3c0,13.4-10.9,24.3-24.3,24.3C10.9,48.7,0,37.8,0,24.4S10.9,0,24.3,0c0,0,0,0,0,0
	C37.8,0,48.7,10.9,48.7,24.3z"/>
<path class="st1" d="M40.2,15.5c1.4-2.2,0.7-5-1.4-6.4c-2.2-1.4-5-0.7-6.4,1.4c-0.6,1-0.9,2.2-0.6,3.4l-4.2-4.2
	c-1.4-1.4-3.6-1.4-5,0l-4.2,4.2c0.5-2.5-1.2-4.9-3.7-5.4C12.1,8,9.7,9.6,9.2,12.2c-0.5,2.5,1.2,4.9,3.7,5.4c0.6,0.1,1.2,0.1,1.7,0
	l-4.2,4.2c-1.4,1.4-1.4,3.6,0,5c0,0,0,0,0,0l4.2,4.2c-2.5-0.5-4.9,1.1-5.4,3.6c-0.5,2.5,1.1,4.9,3.6,5.4c0.1,0,0.3,0.1,0.4,0.1
	c0.2,0,0.3,0,0.5,0c2.6,0,4.6-2.1,4.6-4.6c0-0.3,0-0.6-0.1-0.9l4.2,4.2c1.4,1.4,3.6,1.4,5,0c0,0,0,0,0,0l4.2-4.2
	c0.6-0.6,0.6-1.7,0-2.3l-0.1-0.1c-0.5-0.5-1.2-0.7-1.9-0.6c-1.7,0.2-3.2-1.1-3.4-2.8s1.1-3.2,2.8-3.4c1.7-0.2,3.2,1.1,3.4,2.8
	c0,0.2,0,0.4,0,0.7c-0.1,0.7,0.2,1.4,0.6,1.9l0.2,0.2c0.6,0.6,1.7,0.6,2.3,0l4.2-4.2c1.4-1.4,1.4-3.6,0-5l-4.2-4.3
	C37.3,17.9,39.2,17.1,40.2,15.5z M34.3,16.5c-0.6,0.6-0.6,1.5,0,2.1l4.3,4.3c0.8,0.8,0.8,2.1,0,2.9l-4.2,4.2c-0.1,0.1-0.1,0.1-0.2,0
	l-0.2-0.2c-0.2-0.2-0.2-0.4-0.2-0.7c0.3-2.5-1.6-4.8-4.1-5.1c-1.6-0.2-3.1,0.5-4.1,1.7c-1.3,1.6-1.3,3.9-0.1,5.6
	c1,1.3,2.6,2,4.2,1.9c0.2,0,0.5,0,0.7,0.2l0.1,0.1c0.1,0.1,0.1,0.1,0,0.2c0,0,0,0,0,0L26.5,38c-0.8,0.8-2.1,0.8-2.9,0c0,0,0,0,0,0
	l-4.3-4.3c-0.3-0.3-0.7-0.4-1-0.4l0,0c-0.8,0-1.5,0.7-1.5,1.5c0,0.1,0,0.2,0,0.3c0.4,1.7-0.7,3.3-2.4,3.7C12.7,39,11,38,10.7,36.3
	c-0.2-0.8,0-1.6,0.4-2.3c0.7-1.1,2-1.7,3.3-1.4c0.8,0.2,1.6-0.4,1.7-1.2c0.1-0.5-0.1-1-0.4-1.3l-4.3-4.3c-0.8-0.8-0.8-2.1,0-2.9
	l4.3-4.3c0.6-0.6,0.6-1.5,0-2.1c-0.4-0.4-0.9-0.5-1.3-0.4c-1.3,0.3-2.6-0.3-3.3-1.4c-0.9-1.5-0.5-3.4,1-4.3s3.4-0.5,4.3,1
	c0.4,0.7,0.6,1.5,0.4,2.3c-0.1,0.5,0,1,0.4,1.3c0.6,0.6,1.5,0.6,2.1,0l4.3-4.3c0.8-0.8,2.1-0.8,2.9,0l4.3,4.3c0.6,0.6,1.5,0.6,2.1,0
	c0.4-0.3,0.5-0.9,0.4-1.3C32.9,12,34,10.3,35.7,10c1.7-0.4,3.3,0.7,3.7,2.4s-0.7,3.3-2.4,3.7c-0.4,0.1-0.9,0.1-1.3,0
	C35.2,16,34.7,16.1,34.3,16.5z"/>
</svg>
