<svg xmlns="http://www.w3.org/2000/svg" data-name="Layer 1" viewBox="0 0 100 100" x="0px" y="0px"><title>Artboard 18</title><path d="M90.46,26.54A12.31,12.31,0,1,0,68,22.23L56.69,10.93a9.47,9.47,0,0,0-13.38,0L32,22.23A12.31,12.31,0,1,0,22.23,32L10.93,43.31a9.46,9.46,0,0,0,0,13.38L22.22,68a12.31,12.31,0,1,0-3.57,24.33,12.63,12.63,0,0,0,1.29.07A12.3,12.3,0,0,0,32,77.78L43.31,89.07a9.46,9.46,0,0,0,13.38,0L67.75,78a4.37,4.37,0,0,0,0-6.18l-.39-.39a6.2,6.2,0,0,0-5.06-1.71,8.3,8.3,0,1,1,7.4-7.36,6.09,6.09,0,0,0,1.71,5l.4.4a4.38,4.38,0,0,0,6.19,0L89.07,56.69a9.46,9.46,0,0,0,0-13.37L77.78,32A12.33,12.33,0,0,0,90.46,26.54ZM74.8,29.13a3.94,3.94,0,0,0,0,5.57L86.24,46.14a5.46,5.46,0,0,1,0,7.72L75.17,64.92a.38.38,0,0,1-.53,0l-.4-.4a2.12,2.12,0,0,1-.56-1.74,12.3,12.3,0,0,0-21.9-8.92,12.4,12.4,0,0,0-.23,14.9,12.27,12.27,0,0,0,11.15,4.93,2.25,2.25,0,0,1,1.83.56l.39.39a.37.37,0,0,1,0,.53L53.86,86.24a5.45,5.45,0,0,1-7.72,0L34.71,74.81a3.91,3.91,0,0,0-2.79-1.16h0a3.93,3.93,0,0,0-3.86,4.71,8.31,8.31,0,1,1-15.17-2.72,8.32,8.32,0,0,1,8.73-3.7A3.94,3.94,0,0,0,25.2,65.3L13.76,53.86a5.46,5.46,0,0,1,0-7.72L25.2,34.71a3.94,3.94,0,0,0-3.57-6.65,8.35,8.35,0,0,1-8.74-3.7,8.31,8.31,0,1,1,15.17-2.73,3.89,3.89,0,0,0,1.07,3.56,4,4,0,0,0,5.57,0L46.14,13.76a5.47,5.47,0,0,1,7.72,0L65.29,25.2a4,4,0,0,0,5.58,0,3.9,3.9,0,0,0,1.07-3.56,8.31,8.31,0,1,1,6.43,6.42A3.89,3.89,0,0,0,74.8,29.13Z"></path></svg>