<svg xmlns="http://www.w3.org/2000/svg" xmlns:xlink="http://www.w3.org/1999/xlink" version="1.1" x="0px" y="0px" viewBox="0 0 100 100" enable-background="new 0 0 100 100" xml:space="preserve"><path d="M89.35,60.339h-1.777V17.431h1.777c2.636,0,4.779-2.144,4.779-4.779s-2.144-4.779-4.779-4.779H51.5v-3.42  c0-0.829-0.672-1.5-1.5-1.5c-0.829,0-1.5,0.671-1.5,1.5v3.42H10.65c-2.635,0-4.779,2.144-4.779,4.779s2.144,4.779,4.779,4.779h1.779  v42.908H10.65c-2.635,0-4.779,2.144-4.779,4.777c0,2.636,2.144,4.779,4.779,4.779h35.504L19.473,94.444  c-0.61,0.561-0.649,1.51-0.088,2.119c0.296,0.321,0.7,0.484,1.104,0.484c0.363,0,0.727-0.131,1.015-0.396L48.5,71.813v23.734  c0,0.828,0.671,1.5,1.5,1.5c0.828,0,1.5-0.672,1.5-1.5V71.813l26.998,24.838c0.288,0.266,0.652,0.396,1.016,0.396  c0.404,0,0.809-0.163,1.104-0.484c0.562-0.609,0.521-1.559-0.088-2.119L53.846,69.896H89.35c2.636,0,4.779-2.144,4.779-4.779  C94.129,62.482,91.985,60.339,89.35,60.339z M10.65,14.431c-0.981,0-1.779-0.798-1.779-1.779s0.798-1.779,1.779-1.779H89.35  c0.981,0,1.779,0.798,1.779,1.779s-0.798,1.779-1.779,1.779H10.65z M84.572,17.431v42.908H15.43V17.431H84.572z M89.35,66.896H10.65  c-0.981,0-1.779-0.798-1.779-1.779c0-0.98,0.798-1.777,1.779-1.777H89.35c0.981,0,1.779,0.797,1.779,1.777  C91.129,66.098,90.331,66.896,89.35,66.896z M26.5,54.575h8.106c0.094,0.019,0.19,0.029,0.29,0.029s0.196-0.011,0.29-0.029h8.045  c0.094,0.019,0.19,0.029,0.29,0.029s0.196-0.011,0.29-0.029h16.348c0.085,0.015,0.171,0.026,0.261,0.026s0.176-0.012,0.261-0.026  h7.825c0.116,0.029,0.236,0.049,0.361,0.049s0.245-0.02,0.361-0.049h5.175c0.828,0,1.5-0.672,1.5-1.5s-0.672-1.5-1.5-1.5h-4.036  V37.725c0-0.829-0.672-1.5-1.5-1.5s-1.5,0.671-1.5,1.5v13.851H61.92V35.302c0-0.829-0.672-1.5-1.5-1.5s-1.5,0.671-1.5,1.5v16.273  h-5.486V26.867c0-0.829-0.672-1.5-1.5-1.5s-1.5,0.671-1.5,1.5v24.708h-5.412V35.305c0-0.829-0.671-1.5-1.5-1.5s-1.5,0.671-1.5,1.5  v16.271h-5.625V40.649c0-0.829-0.671-1.5-1.5-1.5s-1.5,0.671-1.5,1.5v10.926H28V22.678c0-0.829-0.671-1.5-1.5-1.5  s-1.5,0.671-1.5,1.5v30.397C25,53.903,25.671,54.575,26.5,54.575z"></path></svg>