<svg xmlns="http://www.w3.org/2000/svg" viewBox="0 0 48.84 48.79"><title>ss-logo</title><circle cx="24.51" cy="24.33" r="24.33" style="fill:#0088b9"/><polygon points="24.83 27.77 32.77 19.82 30.32 17.38 26.13 21.57 26.13 7.95 22.67 7.95 22.67 21.56 18.47 17.36 16.03 19.81 24.41 28.19 24.83 27.77" style="fill:#fff"/><polygon points="34.39 24.77 34.39 31.92 14.64 31.92 14.64 24.77 11.18 24.77 11.18 31.92 11.18 35.38 14.64 35.38 34.39 35.38 37.73 35.38 37.85 35.38 37.85 24.77 34.39 24.77" style="fill:#fff"/><circle cx="24.22" cy="24.39" r="24.39" transform="translate(-0.81 1.02) rotate(-2.38)" style="fill:#0088b9"/><path d="M24,30.11a5.46,5.46,0,0,0-1.5-4.28l-.16-.18a9.28,9.28,0,0,1-2.5-7.54c.63-4.21,4.41-6.91,5.06-7.35L25,10.7,23.11,7.76c-.6.38-5.82,3.88-6.72,9.83a12.71,12.71,0,0,0,3.3,10.33l.19.22a2.47,2.47,0,0,1,.67,1.45,4.68,4.68,0,0,1-1.84,2.29l1.9,2.95C21,34.59,23.63,32.7,24,30.11Z" transform="translate(0.18)" style="fill:#fff"/><path d="M28,20.9l-.2-.23a2.52,2.52,0,0,1-.66-1.45A4.72,4.72,0,0,1,29,16.93L27.09,14s-3,2-3.4,4.73A5.49,5.49,0,0,0,25.19,23l.16.17a9.29,9.29,0,0,1,2.5,7.54c-.68,4.51-5,7.29-5.14,7.41h0l1.89,2.94c.59-.37,5.82-3.87,6.71-9.83C31.69,28.73,31.42,24.91,28,20.9Z" transform="translate(0.18)" style="fill:#fff"/></svg>