<svg xmlns="http://www.w3.org/2000/svg" viewBox="0 0 289 289"><title>ss-logo-with-circles</title><path d="M192.29,144.5A47.79,47.79,0,1,1,144.5,96.71h0a47.78,47.78,0,0,1,47.79,47.77Z" style="fill:none;stroke:#fff;stroke-miterlimit:10"/><path d="M208.38,144.5A63.88,63.88,0,1,1,144.5,80.62h0A63.88,63.88,0,0,1,208.38,144.5Z" style="fill:none;stroke:#fff;stroke-miterlimit:10;opacity:0.800000011920929;isolation:isolate"/><circle cx="144.49" cy="144.49" r="79.66" style="fill:none;stroke:#fff;stroke-miterlimit:10;opacity:0.6000000238418579;isolation:isolate"/><circle cx="144.49" cy="144.49" r="95.74" style="fill:none;stroke:#fff;stroke-miterlimit:10;opacity:0.4000000059604645;isolation:isolate"/><circle cx="144.5" cy="144.5" r="111.83" style="fill:none;stroke:#fff;stroke-miterlimit:10;opacity:0.20000000298023224;isolation:isolate"/><circle cx="144.5" cy="144.5" r="127.6" style="fill:none;stroke:#fff;stroke-miterlimit:10;opacity:0.10000000149011612;isolation:isolate"/><circle cx="144.5" cy="144.5" r="144" style="fill:none;stroke:#fff;stroke-miterlimit:10;opacity:0.05000000074505806;isolation:isolate"/><circle cx="144.25" cy="144.72" r="37.69" transform="translate(-5.87 6.1) rotate(-2.38)" style="fill:#0088b9"/><path d="M143.93,153.55c.31-2.16-.44-4.32-2.32-6.61l-.24-.27c-3.16-3.74-4.46-7.66-3.86-11.65,1-6.5,6.81-10.69,7.8-11.36l.13-.1-2.9-4.54c-.92.59-9,6-10.38,15.19-.58,3.86-.17,9.76,5.09,16l.3.35a3.8,3.8,0,0,1,1,2.23c-.16,1.17-1.76,2.8-2.84,3.54l2.95,4.56C139.23,160.48,143.34,157.56,143.93,153.55Z" style="fill:#fff"/><path d="M150.12,139.32l-.3-.35a3.86,3.86,0,0,1-1-2.24c.16-1.16,1.81-2.86,2.81-3.54l-2.91-4.56s-4.63,3.06-5.25,7.31c-.31,2.15.44,4.32,2.32,6.61l.24.26c3.16,3.74,4.46,7.66,3.86,11.66-1,7-7.66,11.26-7.94,11.44h0l2.92,4.55c.91-.58,9-6,10.37-15.19C155.79,151.41,155.38,145.52,150.12,139.32Z" style="fill:#fff"/></svg>